<svg  viewBox="0 0 12 12" fill="none" xmlns="http://www.w3.org/2000/svg">
<path d="M6.53033 0.21967C6.23744 -0.0732233 5.76256 -0.0732233 5.46967 0.21967L0.21967 5.46967C-0.0732233 5.76256 -0.0732233 6.23744 0.21967 6.53033C0.512563 6.82322 0.987437 6.82322 1.28033 6.53033L1.5 6.31066V11.25C1.5 11.6642 1.83579 12 2.25 12H3.75C4.16421 12 4.5 11.6642 4.5 11.25V9.75C4.5 9.33579 4.83579 9 5.25 9H6.75C7.16421 9 7.5 9.33579 7.5 9.75V11.25C7.5 11.6642 7.83579 12 8.25 12H9.75C10.1642 12 10.5 11.6642 10.5 11.25V6.31066L10.7197 6.53033C11.0126 6.82322 11.4874 6.82322 11.7803 6.53033C12.0732 6.23744 12.0732 5.76256 11.7803 5.46967L6.53033 0.21967Z" fill="#8D8B91"/>
</svg>
