<svg width="143" height="32" viewBox="0 0 143 32" fill="none" xmlns="http://www.w3.org/2000/svg">
<path d="M30 16C30 24.2843 23.2843 31 15 31C6.71573 31 0 24.2843 0 16C0 7.71573 6.71573 1 15 1C23.2843 1 30 7.71573 30 16Z" fill="url(#paint0_linear_502_129)"/>
<path fill-rule="evenodd" clip-rule="evenodd" d="M9.77024 10.9602L4.8916 13.779L4.80583 16.0366L5.1399 15.8204C5.6649 15.4808 14.4414 10.4471 14.6438 10.3695C14.7434 10.3313 15.8667 10.9022 17.1398 11.6382C18.413 12.3744 19.9019 13.2354 20.4486 13.5517L21.4426 14.1269L18.1914 16.0039C16.4032 17.0363 14.8622 17.8824 14.767 17.8843C14.6717 17.8862 13.5737 17.2979 12.3268 16.577C11.0798 15.8561 10.0273 15.2663 9.98767 15.2663C9.9482 15.2663 9.91646 15.7414 9.91733 16.3221L9.91864 17.378L12.211 18.6887C13.4717 19.4095 14.5826 20.02 14.6798 20.0454C14.7769 20.0707 17.1874 18.75 20.0365 17.1104L25.2167 14.1297L23.5736 13.178C18.8563 10.4456 14.7947 8.13098 14.7262 8.13593C14.6837 8.13884 12.4535 9.40977 9.77024 10.9602ZM20.0372 18.7105C17.3139 20.2811 14.9872 21.594 14.8667 21.6278C14.7465 21.6616 13.6651 21.1211 12.4638 20.4268C11.2627 19.7324 10.195 19.1311 10.0912 19.0903C9.94485 19.0331 9.91208 19.2525 9.94558 20.0654L9.98869 21.1146L14.7495 23.8637L23.3072 18.9387L23.3867 23.8497L25.2071 22.7756V19.3122C25.2071 17.4074 25.1581 15.8502 25.0979 15.8518C25.0378 15.8532 22.7605 17.1397 20.0372 18.7105Z" fill="white"/>
<defs>
<linearGradient id="paint0_linear_502_129" x1="15" y1="1" x2="15" y2="31" gradientUnits="userSpaceOnUse">
<stop stop-color="#F43F5E"/>
<stop offset="1" stop-color="#E11D48" stop-opacity="0.79"/>
</linearGradient>
</defs>
</svg>
